<svg version="1.1" viewBox="0 0 10240 7680" x="0px" y="0px" width="1024px" height="768px" xmlns="http://www.w3.org/2000/svg">
  <defs>
  </defs>
  <g id="BACKGROUND">
    <path d="M1925.5510000000002,5914.575000000001L9309.068,5916.022999999999L9349.413999999999,5897.116C9349.413999999999,5897.116 9398.842999999999,5873.954 9446.181999999999,5819.845000000001C9465.145999999999,5798.169000000002 9732,5452.614 9732,5452.614L9788.947,5348.807999999999C9788.947,5348.807999999999 9871.524,5198.284 9950.198,4940.012000000001C10001.524,4771.522000000001 10052.948,4553.076999999999 10081.492,4292.895C10098.324999999999,4139.457 10107.208,3971.441000000001 10103.389,3790.556C10094.372,3363.4259999999995 10014.636,2864.025000000001 9800.405999999999,2315.2799999999997L9750.721,2188.014L9382.951,1748.15L1936.324,1752.531L135.65,2611.1140000000005L135.65,5029.859L1925.5510000000002,5914.575000000001z" id="POCHE" fill="#dddddd" stroke-width="19"/>
    <path d="M335.5,2811.4L854.865,2811.4L854.865,4830.300036559116L335.5,4830.300036559116z" id="STAGE" fill="#afafaf" stroke-width="19"/>
    <text font-family="'TM Sans', arial, 'lucida console', sans-serif" text-align="center" font-size="380" transform="rotate(-90, 363.6544308759988, 4485.880141184747)" x="1029.2272154379993" y="4837.365070592374" width="1323.55" height="439.45" fill="#ffffff" stroke-width="10">
      <tspan text-anchor="middle" x="1029.2272154379991">STAGE</tspan>
    </text>
    <path d="M4128.832859921525,1956.521790540374L2135.815785846934,1955.3999999999999L2135.1525298412053,2167.972193143629L2011.071402590862,2245.7884306710075L2006.289501428946,2245.2907699259526C1998.9418030187453,2244.5256298511185 1982.5600152650045,2243.025188033055 1959.0633131256022,2242.0437200540523C1945.8453189142965,2241.491710919283 1930.3760445367566,2241.1048782630614 1912.995871966646,2241.1048782630614C1845.4233253227007,2241.1048782630614 1748.964867722299,2246.9627821507693 1643.6471674456761,2271.7957336325203C1573.435367261262,2288.350679402122 1499.286930572931,2313.3392164701213 1427.1352635173353,2350.6477875286173C1384.3795630808577,2372.7579912510296 1342.3242839093327,2399.192621747374 1302.2057678219962,2430.763707899303C1270.4809263617972,2455.729866218597 1239.9665618292147,2483.9057764952786 1211.2730856663811,2515.6942562060735C1192.1444464230467,2536.8858655768045 1173.825895585117,2559.6823509262267 1156.4974527982376,2584.203065580785C1146.2280562311257,2598.7343330744607 1136.3073184029931,2613.8719580926254 1126.771450162103,2629.638319383983C1104.1200126807057,2667.092885136424 1083.644329882024,2708.1014093144604 1065.8482498547314,2752.9953105298937L1065.7468594795978,2753.2510676579736L1065.7240983749757,2753.30754735709L1033.540509533409,2926.766846800634L949.6156419529835,3005.625294624932L948.6499999999999,4682.96717902351L1053.1920794076768,4791.556006905241L1065.74272109694,4904.974149754191L1065.74272109694,4904.975215408894C1065.74272109694,4904.975215408894 1067.0514846126948,4910.662614544547 1070.3073571692853,4920.8396169326825C1076.8491055567374,4941.283136703781 1091.1844630858427,4979.597685799386 1118.3012154557814,5025.518878145935C1145.3921029341059,5071.397444304474 1185.2581776792717,5124.94126472247 1242.9130902820798,5175.943498680186C1281.363838158034,5209.958131059968 1327.7251044857462,5242.841038148002 1383.482568639623,5271.568957559454C1416.5379001245365,5288.6002509801 1452.89462637528,5304.171597461297 1492.862091495581,5317.652129420452C1587.8555616348663,5349.694234949929 1703.231600963018,5369.927820745059 1843.1379034995325,5369.927820745058C1848.016022058262,5369.927820745058 1852.9231092955988,5369.903310686951 1857.8612344028757,5369.853224916037C1861.1533178077261,5369.820189620324 1864.4588509562182,5369.776497777613 1867.7767992526842,5369.721083733194C1869.7435656111452,5369.688048437485 1871.714470352265,5369.651816177674 1873.6905480717069,5369.61132129906C1878.3834740064667,5369.514346721332 1883.1032994285065,5369.396059049596 1887.8500243378262,5369.254326974452C1897.9673353422381,5368.951681039558 1908.2056940394118,5368.547797908131 1918.5568236640302,5368.038414961378L1937.117469887483,5367.0185834131635C1951.679403867142,5366.1362213212915 1966.479294849666,5365.049253526957 1981.5212812177156,5363.747023483155L1982.2217024826691,5363.686281165236L2116.355995806217,5452.45531770259L2116.2828209764916,5717.817179023508L4135.110786414498,5719.793981064561C4135.143893475765,5719.721516544943 4138.887060590394,5711.511712733612 4145.607794027828,5695.663296030332C4162.910371923091,5654.868968447058 4199.886820976949,5563.600971637437 4243.896451358958,5430.791623299612C4268.65639480487,5356.073243986091 4295.641753525401,5268.207882634616 4322.601247354318,5168.786561712782C4385.003919462107,4938.6573635221675 4447.281405494481,4646.581657601472 4481.532729567704,4312.242086265747C4501.829427316406,4114.1155643807 4512.284016507486,3901.146603829477 4507.091380866713,3677.433712589544C4502.978863099808,3500.3229670496703 4489.060447623548,3316.4783494584217 4462.451681724943,3127.9309976746245C4444.713539054872,3002.2359601161934 4421.335815416901,2874.4511736904174 4391.466003983382,2745.1787333029856C4373.765106757239,2668.5741451698805 4353.783960686249,2591.446320578915 4331.3456499117665,2513.922072439428C4278.054661822367,2329.8014502807923 4210.901126422595,2143.4418875967694 4127.506508279468,1956.5217905403736z" id="STALLS" transform="rotate(-0.13949493506011973, 948.65, 1955.4)" fill="#ffffff" stroke="#dddddd" stroke-width="19"/>
    <path d="M4279.6,1948.45L4284.5860496183195,2101.5893232177623C4284.603642210912,2101.5067788952692 5321.528642210912,2401.519747019319 5321.7960496183205,3865.1975494786675C5322.003642210912,5328.811567688797 4283.63604961832,5543.760735476128 4283.63604961832,5543.760735476128C4283.701142210912,5543.678191153638 4280.017179023507,5716.3671790235085 4280.017179023507,5716.3671790235085L6279.143683206105,5716.500253896068C6279.143683206105,5716.500253896068 7371.250092592591,3974.1008060379904 6315.164999999999,1948.956521978936z" id="DCIR" fill="#ffffff" stroke="#dddddd" stroke-width="19"/>
    <path d="M6522.5691695403,2098.30238792821L6522.5691695403,1949.2006856300084L9274.011870379469,1948.452305314464C9274.011870379469,1948.452305314464 9448.715399119947,2220.9522453452028 9458.605633790212,2388.3198167121664L9613.909314407845,2388.2863483165893C9613.909314407845,2388.2863483165893 10244.161748016058,3810.5199121991977 9613.75201480554,5252.614015763379L9488.020003425087,5252.614015763379C9488.020003425087,5252.614015763379 9410.302139349207,5599.009341439134 9264.731400815528,5716.197944189527L6521.068059899596,5716.995279495934L6520,5530.033546706097C6520,5530.033546706097 7619.21463452825,5113.095657693718 7611.530030407961,3856.6393613051264C7604.051669183697,2644.443604421772 6522.5691695403,2098.30238792821 6522.5691695403,2098.30238792821z" id="GCIR" fill="#ffffff" stroke="#dddddd" stroke-width="19"/>
    <g id="DETAILS">
      <g id="OVERHANGS">
        <g>
          <polyline points="4279.9078422048715,5766.3 4279.9578426618355,6031.826676291717 2335.3,6031.784315590259 2335.3578422048713,5816.984315590258 " id="OVERHANG" fill="none" stroke="#999999" stroke-width="5"/>
          <path d="M2383.3578593144184,5816.927241224701L2335.326241788352,5733.802304064847L2287.3578439452044,5816.971389958353z" fill="#999999"/>
        </g>
        <polyline points="6521.1578422048715,5767.05 6521.19781181044,6304.993172187111 2334.85,6304.950000000001 2334.8578422048713,6031.8419434623775 " id="OVERHANG" fill="none" stroke="#999999" stroke-width="5"/>
        <g>
          <polyline points="4279.9078422048715,1904.9766762917172 4279.9578426618355,1639.45 2335.3,1639.4923607014584 2335.3578422048713,1854.2923607014593 " id="OVERHANG" fill="none" stroke="#999999" stroke-width="5"/>
          <path d="M2287.357862795084,1854.3752863308262L2335.4342417844364,1937.4743431441989L2383.357840464538,1854.2794350695544z" fill="#999999"/>
        </g>
        <polyline points="6521.1578422048715,1904.1931721871117 6521.19781181044,1366.25 2334.85,1366.29317218711 2334.8578422048713,1639.4012287247338 " id="OVERHANG" fill="none" stroke="#999999" stroke-width="5"/>
        <text font-family="'TM Sans', arial, 'lucida console', sans-serif" text-align="center" font-size="120" x="3307.6" y="1596.15" width="1624.2" height="138.8" fill="#999999" stroke-width="10">
          <tspan text-anchor="middle" x="3307.6">DRESS CIRCLE OVERHANG</tspan>
        </text>
        <text font-family="'TM Sans', arial, 'lucida console', sans-serif" text-align="center" font-size="120" x="3307.6" y="6166.15" width="1624.2" height="138.8" fill="#999999" stroke-width="10">
          <tspan text-anchor="middle" x="3307.6">DRESS CIRCLE OVERHANG</tspan>
        </text>
        <text font-family="'TM Sans', arial, 'lucida console', sans-serif" text-align="center" font-size="120" x="4427.849999999999" y="6447.55" width="1650.85" height="138.8" fill="#999999" stroke-width="10">
          <tspan text-anchor="middle" x="4427.849999999999">GRAND CIRCLE OVERHANG</tspan>
        </text>
        <text font-family="'TM Sans', arial, 'lucida console', sans-serif" text-align="center" font-size="120" x="4427.849999999999" y="1315.6" width="1650.85" height="138.8" fill="#999999" stroke-width="10">
          <tspan text-anchor="middle" x="4427.849999999999">GRAND CIRCLE OVERHANG</tspan>
        </text>
      </g>
      <g id="COLUMN">
        <path d="M3386.95,3075L3491.926,3075L3491.926,3179.976L3386.95,3179.976z" id="COLUMN" fill="#ffffff" stroke="#dddddd" stroke-width="38"/>
        <path d="M3386.95,4484.8L3491.926,4484.8L3491.926,4589.776L3386.95,4589.776z" id="COLUMN" fill="#ffffff" stroke="#dddddd" stroke-width="38"/>
        <path d="M5708.95,4408.8L5813.926,4408.8L5813.926,4513.776L5708.95,4513.776z" id="COLUMN" fill="#ffffff" stroke="#dddddd" stroke-width="38"/>
        <path d="M5708.95,3134L5813.926,3134L5813.926,3238.976L5708.95,3238.976z" id="COLUMN" fill="#ffffff" stroke="#dddddd" stroke-width="38"/>
      </g>
    </g>
  </g>
</svg>